<svg width="32" height="33" viewBox="0 0 32 33" fill="none" xmlns="http://www.w3.org/2000/svg">
<g id="HandHeart">
<g clip-path="url(#clip0_51_156)">
<path id="Vector" d="M28.7913 18.1325C28.4642 17.8805 28.0894 17.6977 27.6894 17.5951C27.2895 17.4926 26.8729 17.4726 26.465 17.5362C28.8125 15.1662 30 12.81 30 10.5C30 7.19125 27.3387 4.5 24.0675 4.5C23.1995 4.49454 22.3408 4.67915 21.5518 5.04085C20.7627 5.40256 20.0624 5.93259 19.5 6.59375C18.9376 5.93259 18.2373 5.40256 17.4482 5.04085C16.6592 4.67915 15.8005 4.49454 14.9325 4.5C11.6613 4.5 9 7.19125 9 10.5C9 11.875 9.405 13.2112 10.2575 14.625C9.5593 14.8019 8.92211 15.1648 8.41375 15.675L5.58625 18.5H2C1.46957 18.5 0.960859 18.7107 0.585786 19.0858C0.210714 19.4609 0 19.9696 0 20.5L0 25.5C0 26.0304 0.210714 26.5391 0.585786 26.9142C0.960859 27.2893 1.46957 27.5 2 27.5H15C15.0818 27.5 15.1632 27.49 15.2425 27.47L23.2425 25.47C23.2935 25.4579 23.3433 25.4411 23.3913 25.42L28.25 23.3525L28.305 23.3275C28.772 23.0942 29.1718 22.7458 29.4669 22.3152C29.7621 21.8846 29.9427 21.386 29.9918 20.8663C30.041 20.3466 29.957 19.8229 29.7478 19.3447C29.5387 18.8664 29.2112 18.4492 28.7962 18.1325H28.7913ZM14.9325 6.5C15.707 6.48866 16.4673 6.70859 17.1162 7.13166C17.765 7.55473 18.273 8.16171 18.575 8.875C18.6503 9.05841 18.7785 9.21528 18.9432 9.32568C19.1079 9.43608 19.3017 9.49503 19.5 9.49503C19.6983 9.49503 19.8921 9.43608 20.0568 9.32568C20.2215 9.21528 20.3497 9.05841 20.425 8.875C20.727 8.16171 21.235 7.55473 21.8838 7.13166C22.5327 6.70859 23.293 6.48866 24.0675 6.5C26.1987 6.5 28 8.33125 28 10.5C28 12.9387 26.0262 15.6975 22.2925 18.4875L20.9062 18.8062C21.0279 18.2922 21.0317 17.7574 20.9172 17.2417C20.8028 16.726 20.5731 16.2429 20.2454 15.8287C19.9177 15.4144 19.5005 15.0796 19.0251 14.8495C18.5496 14.6194 18.0282 14.4999 17.5 14.5H12.585C11.5063 13.045 11 11.765 11 10.5C11 8.33125 12.8013 6.5 14.9325 6.5ZM2 20.5H5V25.5H2V20.5ZM27.4287 21.5262L22.6787 23.5487L14.875 25.5H7V19.9137L9.82875 17.0862C10.0138 16.8997 10.2341 16.7518 10.4768 16.6512C10.7195 16.5506 10.9798 16.4992 11.2425 16.5H17.5C17.8978 16.5 18.2794 16.658 18.5607 16.9393C18.842 17.2206 19 17.6022 19 18C19 18.3978 18.842 18.7794 18.5607 19.0607C18.2794 19.342 17.8978 19.5 17.5 19.5H14C13.7348 19.5 13.4804 19.6054 13.2929 19.7929C13.1054 19.9804 13 20.2348 13 20.5C13 20.7652 13.1054 21.0196 13.2929 21.2071C13.4804 21.3946 13.7348 21.5 14 21.5H18C18.0753 21.4998 18.1503 21.4914 18.2237 21.475L26.5987 19.5487L26.6375 19.5387C26.8932 19.4678 27.166 19.4939 27.4036 19.612C27.6412 19.7301 27.8267 19.9319 27.9245 20.1786C28.0222 20.4253 28.0253 20.6994 27.9331 20.9482C27.8409 21.1969 27.6599 21.4028 27.425 21.5262H27.4287Z" fill="black"/>
</g>
</g>
<defs>
<clipPath id="clip0_51_156">
<rect y="0.5" width="32" height="32" rx="8" fill="white"/>
</clipPath>
</defs>
</svg>
