<svg width="66" height="49" viewBox="0 0 66 49" fill="none" xmlns="http://www.w3.org/2000/svg">
<path d="M26.5 26.1225C25.8078 26.1225 25.1311 26.3278 24.5555 26.7124C23.9799 27.097 23.5313 27.6436 23.2664 28.2831C23.0015 28.9227 22.9322 29.6264 23.0673 30.3053C23.2023 30.9843 23.5356 31.6079 24.0251 32.0974C24.5146 32.5869 25.1383 32.9202 25.8172 33.0553C26.4961 33.1903 27.1999 33.121 27.8394 32.8561C28.4789 32.5912 29.0256 32.1426 29.4101 31.567C29.7947 30.9914 30 30.3147 30 29.6225C30 28.6943 29.6313 27.804 28.9749 27.1476C28.3185 26.4913 27.4283 26.1225 26.5 26.1225ZM26.5 31.1225C26.2033 31.1225 25.9133 31.0345 25.6666 30.8697C25.42 30.7049 25.2277 30.4706 25.1142 30.1965C25.0007 29.9225 24.9709 29.6208 25.0288 29.3299C25.0867 29.0389 25.2296 28.7716 25.4393 28.5619C25.6491 28.3521 25.9164 28.2092 26.2074 28.1513C26.4983 28.0935 26.7999 28.1232 27.074 28.2367C27.3481 28.3502 27.5824 28.5425 27.7472 28.7892C27.912 29.0358 28 29.3258 28 29.6225C28 30.0203 27.842 30.4019 27.5607 30.6832C27.2794 30.9645 26.8978 31.1225 26.5 31.1225ZM9 29.6225C9 28.9303 8.79473 28.2536 8.41015 27.678C8.02556 27.1024 7.47894 26.6538 6.83939 26.3889C6.19985 26.124 5.49612 26.0547 4.81719 26.1898C4.13825 26.3248 3.51461 26.6582 3.02513 27.1476C2.53564 27.6371 2.2023 28.2608 2.06725 28.9397C1.9322 29.6186 2.00152 30.3224 2.26642 30.9619C2.53133 31.6014 2.97993 32.1481 3.55551 32.5327C4.13108 32.9172 4.80777 33.1225 5.5 33.1225C6.42826 33.1225 7.3185 32.7538 7.97487 32.0974C8.63125 31.441 9 30.5508 9 29.6225ZM5.5 31.1225C5.20333 31.1225 4.91332 31.0345 4.66665 30.8697C4.41997 30.7049 4.22771 30.4706 4.11418 30.1965C4.00065 29.9225 3.97095 29.6208 4.02882 29.3299C4.0867 29.0389 4.22956 28.7716 4.43934 28.5619C4.64912 28.3521 4.91639 28.2092 5.20737 28.1513C5.49834 28.0935 5.79994 28.1232 6.07403 28.2367C6.34812 28.3502 6.58238 28.5425 6.74721 28.7892C6.91203 29.0358 7 29.3258 7 29.6225C7 30.0203 6.84197 30.4019 6.56066 30.6832C6.27936 30.9645 5.89783 31.1225 5.5 31.1225ZM11.5 27.1225C12.1922 27.1225 12.8689 26.9172 13.4445 26.5327C14.0201 26.1481 14.4687 25.6014 14.7336 24.9619C14.9985 24.3224 15.0678 23.6186 14.9328 22.9397C14.7977 22.2608 14.4644 21.6371 13.9749 21.1476C13.4854 20.6582 12.8618 20.3248 12.1828 20.1898C11.5039 20.0547 10.8002 20.124 10.1606 20.3889C9.52107 20.6538 8.97444 21.1024 8.58986 21.678C8.20527 22.2536 8 22.9303 8 23.6225C8 24.5508 8.36875 25.441 9.02513 26.0974C9.68151 26.7538 10.5717 27.1225 11.5 27.1225ZM11.5 22.1225C11.7967 22.1225 12.0867 22.2105 12.3334 22.3753C12.58 22.5401 12.7723 22.7744 12.8858 23.0485C12.9994 23.3226 13.0291 23.6242 12.9712 23.9151C12.9133 24.2061 12.7704 24.4734 12.5607 24.6832C12.3509 24.893 12.0836 25.0358 11.7926 25.0937C11.5017 25.1516 11.2001 25.1219 10.926 25.0083C10.6519 24.8948 10.4176 24.7025 10.2528 24.4559C10.088 24.2092 10 23.9192 10 23.6225C10 23.2247 10.158 22.8432 10.4393 22.5619C10.7206 22.2805 11.1022 22.1225 11.5 22.1225ZM20.5 27.1225C21.1922 27.1225 21.8689 26.9172 22.4445 26.5327C23.0201 26.1481 23.4687 25.6014 23.7336 24.9619C23.9985 24.3224 24.0678 23.6186 23.9328 22.9397C23.7977 22.2608 23.4644 21.6371 22.9749 21.1476C22.4854 20.6582 21.8618 20.3248 21.1828 20.1898C20.5039 20.0547 19.8002 20.124 19.1606 20.3889C18.5211 20.6538 17.9744 21.1024 17.5899 21.678C17.2053 22.2536 17 22.9303 17 23.6225C17 24.5508 17.3687 25.441 18.0251 26.0974C18.6815 26.7538 19.5717 27.1225 20.5 27.1225ZM20.5 22.1225C20.7967 22.1225 21.0867 22.2105 21.3334 22.3753C21.58 22.5401 21.7723 22.7744 21.8858 23.0485C21.9994 23.3226 22.0291 23.6242 21.9712 23.9151C21.9133 24.2061 21.7704 24.4734 21.5607 24.6832C21.3509 24.893 21.0836 25.0358 20.7926 25.0937C20.5017 25.1516 20.2001 25.1219 19.926 25.0083C19.6519 24.8948 19.4176 24.7025 19.2528 24.4559C19.088 24.2092 19 23.9192 19 23.6225C19 23.2247 19.158 22.8432 19.4393 22.5619C19.7206 22.2805 20.1022 22.1225 20.5 22.1225ZM23.39 34.73C22.8821 34.4498 22.4344 34.0722 22.0725 33.6187C21.7107 33.1653 21.4418 32.645 21.2813 32.0875C20.9488 30.9441 20.2541 29.9394 19.3018 29.2246C18.3494 28.5097 17.1908 28.1232 16 28.1232C14.8092 28.1232 13.6506 28.5097 12.6982 29.2246C11.7459 29.9394 11.0512 30.9441 10.7188 32.0875C10.3976 33.2092 9.6446 34.1577 8.625 34.725C7.6469 35.2543 6.87316 36.0945 6.42616 37.1128C5.97916 38.1311 5.88441 39.2694 6.15691 40.3476C6.4294 41.4258 7.05358 42.3824 7.93072 43.0661C8.80786 43.7498 9.88789 44.1215 11 44.1225C11.6665 44.1244 12.3264 43.9913 12.94 43.7313C14.8963 42.9245 17.0924 42.9245 19.0488 43.7313C20.2337 44.2466 21.5721 44.2832 22.7835 43.8334C23.9948 43.3836 24.985 42.4823 25.5464 41.3184C26.1078 40.1546 26.1968 38.8186 25.7948 37.5906C25.3928 36.3625 24.5309 35.3378 23.39 34.7313V34.73ZM21 42.1225C20.594 42.1229 20.1921 42.0408 19.8188 41.8813C17.3695 40.8696 14.6192 40.8696 12.17 41.8813C11.4583 42.1877 10.6555 42.2069 9.92996 41.9347C9.2044 41.6626 8.61231 41.1202 8.27769 40.4212C7.94308 39.7223 7.89191 38.9209 8.1349 38.1851C8.3779 37.4493 8.8962 36.836 9.58125 36.4738C10.3178 36.067 10.9669 35.519 11.4916 34.8612C12.0162 34.2034 12.406 33.4486 12.6388 32.64C12.8501 31.912 13.2921 31.2723 13.8982 30.8171C14.5044 30.3618 15.2419 30.1157 16 30.1157C16.7581 30.1157 17.4956 30.3618 18.1018 30.8171C18.7079 31.2723 19.1499 31.912 19.3613 32.64C19.5947 33.4501 19.9858 34.2062 20.5119 34.8649C21.0381 35.5236 21.689 36.072 22.4275 36.4788C23.0173 36.7951 23.4844 37.2995 23.7545 37.9119C24.0245 38.5243 24.0821 39.2093 23.918 39.8582C23.7539 40.507 23.3775 41.0823 22.8488 41.4926C22.32 41.9029 21.6693 42.1247 21 42.1225Z" fill="black"/>
<path d="M60.0012 10C59.309 10 58.6323 10.2053 58.0567 10.5899C57.4812 10.9744 57.0326 11.5211 56.7676 12.1606C56.5027 12.8002 56.4334 13.5039 56.5685 14.1828C56.7035 14.8618 57.0369 15.4854 57.5263 15.9749C58.0158 16.4644 58.6395 16.7977 59.3184 16.9327C59.9973 17.0678 60.7011 16.9985 61.3406 16.7336C61.9802 16.4687 62.5268 16.0201 62.9114 15.4445C63.2959 14.8689 63.5012 14.1922 63.5012 13.5C63.5012 12.5717 63.1325 11.6815 62.4761 11.0251C61.8197 10.3688 60.9295 10 60.0012 10ZM60.0012 15C59.7045 15 59.4145 14.912 59.1679 14.7472C58.9212 14.5824 58.7289 14.3481 58.6154 14.074C58.5019 13.7999 58.4722 13.4983 58.53 13.2074C58.5879 12.9164 58.7308 12.6491 58.9406 12.4393C59.1503 12.2296 59.4176 12.0867 59.7086 12.0288C59.9996 11.9709 60.3012 12.0007 60.5752 12.1142C60.8493 12.2277 61.0836 12.42 61.2484 12.6666C61.4132 12.9133 61.5012 13.2033 61.5012 13.5C61.5012 13.8978 61.3432 14.2794 61.0619 14.5607C60.7806 14.842 60.399 15 60.0012 15ZM42.5012 13.5C42.5012 12.8078 42.296 12.1311 41.9114 11.5555C41.5268 10.9799 40.9802 10.5313 40.3406 10.2664C39.7011 10.0015 38.9973 9.9322 38.3184 10.0673C37.6395 10.2023 37.0158 10.5356 36.5263 11.0251C36.0369 11.5146 35.7035 12.1383 35.5685 12.8172C35.4334 13.4961 35.5027 14.1999 35.7676 14.8394C36.0326 15.4789 36.4812 16.0256 37.0567 16.4101C37.6323 16.7947 38.309 17 39.0012 17C39.9295 17 40.8197 16.6313 41.4761 15.9749C42.1325 15.3185 42.5012 14.4283 42.5012 13.5ZM39.0012 15C38.7046 15 38.4145 14.912 38.1679 14.7472C37.9212 14.5824 37.7289 14.3481 37.6154 14.074C37.5019 13.7999 37.4722 13.4983 37.53 13.2074C37.5879 12.9164 37.7308 12.6491 37.9406 12.4393C38.1503 12.2296 38.4176 12.0867 38.7086 12.0288C38.9996 11.9709 39.3012 12.0007 39.5752 12.1142C39.8493 12.2277 40.0836 12.42 40.2484 12.6666C40.4132 12.9133 40.5012 13.2033 40.5012 13.5C40.5012 13.8978 40.3432 14.2794 40.0619 14.5607C39.7806 14.842 39.399 15 39.0012 15ZM45.0012 11C45.6935 11 46.3701 10.7947 46.9457 10.4101C47.5213 10.0256 47.9699 9.47893 48.2348 8.83939C48.4997 8.19985 48.569 7.49612 48.434 6.81719C48.2989 6.13825 47.9656 5.51461 47.4761 5.02513C46.9866 4.53564 46.363 4.2023 45.684 4.06725C45.0051 3.9322 44.3014 4.00152 43.6618 4.26642C43.0223 4.53133 42.4757 4.97993 42.0911 5.55551C41.7065 6.13108 41.5012 6.80777 41.5012 7.5C41.5012 8.42826 41.87 9.3185 42.5263 9.97487C43.1827 10.6313 44.073 11 45.0012 11ZM45.0012 6C45.2979 6 45.5879 6.08798 45.8346 6.2528C46.0813 6.41762 46.2735 6.65189 46.387 6.92598C46.5006 7.20007 46.5303 7.50167 46.4724 7.79264C46.4145 8.08361 46.2717 8.35088 46.0619 8.56066C45.8521 8.77044 45.5848 8.9133 45.2939 8.97118C45.0029 9.02906 44.7013 8.99935 44.4272 8.88582C44.1531 8.77229 43.9188 8.58003 43.754 8.33336C43.5892 8.08668 43.5012 7.79667 43.5012 7.5C43.5012 7.10218 43.6593 6.72065 43.9406 6.43934C44.2219 6.15804 44.6034 6 45.0012 6ZM54.0012 11C54.6935 11 55.3701 10.7947 55.9457 10.4101C56.5213 10.0256 56.9699 9.47893 57.2348 8.83939C57.4997 8.19985 57.569 7.49612 57.434 6.81719C57.2989 6.13825 56.9656 5.51461 56.4761 5.02513C55.9866 4.53564 55.363 4.2023 54.684 4.06725C54.0051 3.9322 53.3014 4.00152 52.6618 4.26642C52.0223 4.53133 51.4757 4.97993 51.0911 5.55551C50.7065 6.13108 50.5012 6.80777 50.5012 7.5C50.5012 8.42826 50.87 9.3185 51.5263 9.97487C52.1827 10.6313 53.073 11 54.0012 11ZM54.0012 6C54.2979 6 54.5879 6.08798 54.8346 6.2528C55.0813 6.41762 55.2735 6.65189 55.387 6.92598C55.5006 7.20007 55.5303 7.50167 55.4724 7.79264C55.4145 8.08361 55.2717 8.35088 55.0619 8.56066C54.8521 8.77044 54.5848 8.9133 54.2939 8.97118C54.0029 9.02906 53.7013 8.99935 53.4272 8.88582C53.1531 8.77229 52.9188 8.58003 52.754 8.33336C52.5892 8.08668 52.5012 7.79667 52.5012 7.5C52.5012 7.10218 52.6593 6.72065 52.9406 6.43934C53.2219 6.15804 53.6034 6 54.0012 6ZM56.8912 18.6075C56.3833 18.3273 55.9356 17.9497 55.5737 17.4962C55.2119 17.0428 54.943 16.5225 54.7825 15.965C54.45 14.8216 53.7554 13.8169 52.803 13.102C51.8507 12.3872 50.692 12.0007 49.5012 12.0007C48.3104 12.0007 47.1518 12.3872 46.1994 13.102C45.2471 13.8169 44.5525 14.8216 44.22 15.965C43.8988 17.0867 43.1458 18.0352 42.1262 18.6025C41.1481 19.1318 40.3744 19.972 39.9274 20.9903C39.4804 22.0086 39.3856 23.1469 39.6581 24.2251C39.9306 25.3033 40.5548 26.2599 41.4319 26.9436C42.3091 27.6273 43.3891 27.999 44.5012 28C45.1677 28.0019 45.8276 27.8688 46.4412 27.6088C48.3976 26.8019 50.5936 26.8019 52.55 27.6088C53.7349 28.1241 55.0734 28.1607 56.2847 27.7109C57.496 27.2611 58.4862 26.3598 59.0476 25.1959C59.609 24.0321 59.698 22.6961 59.296 21.4681C58.894 20.24 58.0322 19.2153 56.8912 18.6088V18.6075ZM54.5012 26C54.0952 26.0003 53.6933 25.9183 53.32 25.7588C50.8707 24.7471 48.1204 24.7471 45.6712 25.7588C44.9595 26.0652 44.1567 26.0844 43.4312 25.8122C42.7056 25.54 42.1135 24.9977 41.7789 24.2987C41.4443 23.5998 41.3931 22.7984 41.6361 22.0626C41.8791 21.3268 42.3974 20.7135 43.0825 20.3513C43.819 19.9445 44.4682 19.3965 44.9928 18.7387C45.5174 18.0809 45.9072 17.3261 46.14 16.5175C46.3513 15.7895 46.7933 15.1498 47.3994 14.6945C48.0056 14.2393 48.7432 13.9932 49.5012 13.9932C50.2593 13.9932 50.9969 14.2393 51.603 14.6945C52.2092 15.1498 52.6511 15.7895 52.8625 16.5175C53.096 17.3276 53.487 18.0837 54.0131 18.7424C54.5393 19.4011 55.1903 19.9495 55.9287 20.3563C56.5185 20.6726 56.9856 21.177 57.2557 21.7894C57.5258 22.4017 57.5833 23.0868 57.4192 23.7357C57.2551 24.3845 56.8787 24.9598 56.35 25.3701C55.8212 25.7804 55.1705 26.0021 54.5012 26Z" fill="black"/>
</svg>
