<svg width="32" height="33" viewBox="0 0 32 33" fill="none" xmlns="http://www.w3.org/2000/svg">
<g id="SealCheck">
<path id="Vector" d="M28.2325 13.3525C27.7612 12.86 27.2738 12.3525 27.09 11.9062C26.92 11.4975 26.91 10.82 26.9 10.1637C26.8813 8.94375 26.8612 7.56125 25.9 6.6C24.9387 5.63875 23.5562 5.61875 22.3363 5.6C21.68 5.59 21.0025 5.58 20.5938 5.41C20.1488 5.22625 19.64 4.73875 19.1475 4.2675C18.285 3.43875 17.305 2.5 16 2.5C14.695 2.5 13.7162 3.43875 12.8525 4.2675C12.36 4.73875 11.8525 5.22625 11.4062 5.41C11 5.58 10.32 5.59 9.66375 5.6C8.44375 5.61875 7.06125 5.63875 6.1 6.6C5.13875 7.56125 5.125 8.94375 5.1 10.1637C5.09 10.82 5.08 11.4975 4.91 11.9062C4.72625 12.3512 4.23875 12.86 3.7675 13.3525C2.93875 14.215 2 15.195 2 16.5C2 17.805 2.93875 18.7837 3.7675 19.6475C4.23875 20.14 4.72625 20.6475 4.91 21.0938C5.08 21.5025 5.09 22.18 5.1 22.8363C5.11875 24.0562 5.13875 25.4387 6.1 26.4C7.06125 27.3612 8.44375 27.3813 9.66375 27.4C10.32 27.41 10.9975 27.42 11.4062 27.59C11.8512 27.7738 12.36 28.2612 12.8525 28.7325C13.715 29.5613 14.695 30.5 16 30.5C17.305 30.5 18.2837 29.5613 19.1475 28.7325C19.64 28.2612 20.1475 27.7738 20.5938 27.59C21.0025 27.42 21.68 27.41 22.3363 27.4C23.5562 27.3813 24.9387 27.3612 25.9 26.4C26.8612 25.4387 26.8813 24.0562 26.9 22.8363C26.91 22.18 26.92 21.5025 27.09 21.0938C27.2738 20.6488 27.7612 20.14 28.2325 19.6475C29.0613 18.785 30 17.805 30 16.5C30 15.195 29.0613 14.2162 28.2325 13.3525ZM26.7887 18.2638C26.19 18.8888 25.57 19.535 25.2412 20.3288C24.9262 21.0913 24.9125 21.9625 24.9 22.8062C24.8875 23.6812 24.8738 24.5975 24.485 24.985C24.0963 25.3725 23.1862 25.3875 22.3062 25.4C21.4625 25.4125 20.5913 25.4262 19.8288 25.7412C19.035 26.07 18.3888 26.69 17.7638 27.2887C17.1388 27.8875 16.5 28.5 16 28.5C15.5 28.5 14.8562 27.885 14.2362 27.2887C13.6163 26.6925 12.965 26.07 12.1713 25.7412C11.4088 25.4262 10.5375 25.4125 9.69375 25.4C8.81875 25.3875 7.9025 25.3738 7.515 24.985C7.1275 24.5963 7.1125 23.6862 7.1 22.8062C7.0875 21.9625 7.07375 21.0913 6.75875 20.3288C6.43 19.535 5.81 18.8888 5.21125 18.2638C4.6125 17.6388 4 17 4 16.5C4 16 4.615 15.3562 5.21125 14.7362C5.8075 14.1163 6.43 13.465 6.75875 12.6713C7.07375 11.9088 7.0875 11.0375 7.1 10.1938C7.1125 9.31875 7.12625 8.4025 7.515 8.015C7.90375 7.6275 8.81375 7.6125 9.69375 7.6C10.5375 7.5875 11.4088 7.57375 12.1713 7.25875C12.965 6.93 13.6112 6.31 14.2362 5.71125C14.8612 5.1125 15.5 4.5 16 4.5C16.5 4.5 17.1438 5.115 17.7638 5.71125C18.3838 6.3075 19.035 6.93 19.8288 7.25875C20.5913 7.57375 21.4625 7.5875 22.3062 7.6C23.1812 7.6125 24.0975 7.62625 24.485 8.015C24.8725 8.40375 24.8875 9.31375 24.9 10.1938C24.9125 11.0375 24.9262 11.9088 25.2412 12.6713C25.57 13.465 26.19 14.1112 26.7887 14.7362C27.3875 15.3612 28 16 28 16.5C28 17 27.385 17.6438 26.7887 18.2638ZM21.7075 12.7925C21.8005 12.8854 21.8742 12.9957 21.9246 13.1171C21.9749 13.2385 22.0008 13.3686 22.0008 13.5C22.0008 13.6314 21.9749 13.7615 21.9246 13.8829C21.8742 14.0043 21.8005 14.1146 21.7075 14.2075L14.7075 21.2075C14.6146 21.3005 14.5043 21.3742 14.3829 21.4246C14.2615 21.4749 14.1314 21.5008 14 21.5008C13.8686 21.5008 13.7385 21.4749 13.6171 21.4246C13.4957 21.3742 13.3854 21.3005 13.2925 21.2075L10.2925 18.2075C10.1049 18.0199 9.99944 17.7654 9.99944 17.5C9.99944 17.2346 10.1049 16.9801 10.2925 16.7925C10.4801 16.6049 10.7346 16.4994 11 16.4994C11.2654 16.4994 11.5199 16.6049 11.7075 16.7925L14 19.0863L20.2925 12.7925C20.3854 12.6995 20.4957 12.6258 20.6171 12.5754C20.7385 12.5251 20.8686 12.4992 21 12.4992C21.1314 12.4992 21.2615 12.5251 21.3829 12.5754C21.5043 12.6258 21.6146 12.6995 21.7075 12.7925Z" fill="black"/>
</g>
</svg>
