<svg width="32" height="33" viewBox="0 0 32 33" fill="none" xmlns="http://www.w3.org/2000/svg">
<g id="VideoCamera">
<path id="Vector" d="M31.4713 9.625C31.3118 9.53953 31.1321 9.49892 30.9514 9.5075C30.7707 9.51609 30.5956 9.57354 30.445 9.67375L26 12.6313V9.5C26 8.96957 25.7893 8.46086 25.4142 8.08579C25.0391 7.71071 24.5304 7.5 24 7.5H4C3.46957 7.5 2.96086 7.71071 2.58579 8.08579C2.21071 8.46086 2 8.96957 2 9.5V23.5C2 24.0304 2.21071 24.5391 2.58579 24.9142C2.96086 25.2893 3.46957 25.5 4 25.5H24C24.5304 25.5 25.0391 25.2893 25.4142 24.9142C25.7893 24.5391 26 24.0304 26 23.5V20.375L30.445 23.3388C30.6101 23.446 30.8032 23.502 31 23.5C31.2652 23.5 31.5196 23.3946 31.7071 23.2071C31.8946 23.0196 32 22.7652 32 22.5V10.5C31.9987 10.3201 31.949 10.1438 31.8559 9.98982C31.7628 9.83582 31.63 9.70979 31.4713 9.625ZM24 23.5H4V9.5H24V23.5ZM30 20.6313L26 17.965V15.035L30 12.375V20.6313Z" fill="black"/>
</g>
</svg>
